<svg width="147" height="147" viewBox="0 0 147 147" fill="none" xmlns="http://www.w3.org/2000/svg">
<path d="M117.6 0C110.985 0 102.9 7.35 102.9 14.7H44.1C44.1 7.35 36.015 0 29.4 0H0V66.15C0 73.5 7.35 80.85 14.7 80.85H30.87C33.81 95.55 43.365 108.045 66.15 110.25V125.538C44.1 128.919 44.1 147 44.1 147H102.9C102.9 147 102.9 128.919 80.85 125.538V110.25C103.635 108.045 113.19 95.55 116.13 80.85H132.3C139.65 80.85 147 73.5 147 66.15V0H117.6ZM29.4 66.15H14.7V14.7H29.4V66.15ZM132.3 66.15H117.6V14.7H132.3V66.15Z" fill="black"/>
</svg>
