<svg width="49" height="48" viewBox="0 0 49 48" fill="none" xmlns="http://www.w3.org/2000/svg">
<path fill-rule="evenodd" clip-rule="evenodd" d="M24.5 48C11.2452 48 0.5 37.2548 0.5 24C0.5 10.7452 11.2452 0 24.5 0C37.7548 0 48.5 10.7452 48.5 24C48.5 37.2548 37.7548 48 24.5 48ZM24.8344 22.653C26.7995 22.653 36.3544 17.28 36.3544 17.28L36.3698 16.32C36.3698 15.2602 35.5096 14.4 34.4469 14.4H15.2219C14.1602 14.4 13.3 15.2602 13.3 16.32V17.1754C13.3 17.1754 22.9595 22.653 24.8344 22.653ZM13.3154 20.16C13.3144 20.16 22.9595 25.293 24.8344 25.293C26.8898 25.293 36.3544 20.16 36.3544 20.16L36.3698 31.68C36.3698 32.7398 35.5096 33.6 34.4469 33.6H15.2219C14.1611 33.6 13.3 32.7398 13.3 31.68L13.3154 20.16Z" fill="#828282"/>
</svg>
