<svg width="48" height="49" viewBox="0 0 48 49" fill="none" xmlns="http://www.w3.org/2000/svg">
<path d="M24.0432 0.679932C10.8147 0.679932 0.0876465 11.5878 0.0876465 25.0445C0.0876465 35.8096 6.95165 44.9426 16.4699 48.1643C17.6672 48.3899 18.1067 47.6358 18.1067 46.9922C18.1067 46.4112 18.0845 44.4919 18.0742 42.456C11.4097 43.9299 10.0034 39.5812 10.0034 39.5812C8.9137 36.765 7.34358 36.0161 7.34358 36.0161C5.17009 34.5039 7.50742 34.535 7.50742 34.535C9.91297 34.7065 11.1796 37.0458 11.1796 37.0458C13.3162 40.7707 16.7837 39.6938 18.1507 39.0712C18.3657 37.4969 18.9866 36.4212 19.6716 35.8132C14.3508 35.1971 8.7574 33.1079 8.7574 23.7719C8.7574 21.1118 9.6932 18.9383 11.2256 17.232C10.9769 16.6179 10.1569 14.1402 11.4577 10.7841C11.4577 10.7841 13.4693 10.1293 18.0472 13.2816C19.9581 12.7418 22.0074 12.471 24.0432 12.4618C26.0791 12.471 28.13 12.7418 30.0444 13.2816C34.6167 10.1293 36.6256 10.7841 36.6256 10.7841C37.9295 14.1402 37.1091 16.6179 36.8604 17.232C38.3964 18.9383 39.3259 21.1118 39.3259 23.7719C39.3259 33.1301 33.7218 35.1906 28.3874 35.7938C29.2467 36.5499 30.0123 38.0327 30.0123 40.3059C30.0123 43.5655 29.9845 46.1893 29.9845 46.9922C29.9845 47.6406 30.4157 48.4003 31.63 48.1611C41.1431 44.9357 47.9984 35.8059 47.9984 25.0445C47.9984 11.5878 37.273 0.679932 24.0432 0.679932Z" fill="#828282"/>
<path d="M9.16085 35.6623C9.10809 35.7838 8.92085 35.8197 8.75027 35.7366C8.57652 35.6571 8.47893 35.4921 8.53526 35.3706C8.58683 35.246 8.77447 35.2117 8.94782 35.2944C9.12197 35.3743 9.22115 35.5409 9.16085 35.6623Z" fill="#828282"/>
<path d="M10.131 36.763C10.0168 36.8707 9.79346 36.8207 9.64192 36.6504C9.48523 36.4806 9.45587 36.2534 9.57171 36.1441C9.68953 36.0363 9.90612 36.0868 10.0632 36.2566C10.2199 36.4285 10.2505 36.6541 10.131 36.763Z" fill="#828282"/>
<path d="M11.0757 38.1662C10.929 38.2699 10.689 38.1726 10.5406 37.956C10.3938 37.7393 10.3938 37.4795 10.5438 37.3754C10.6925 37.2713 10.929 37.3649 11.0793 37.5799C11.2257 37.7998 11.2257 38.0601 11.0757 38.1662Z" fill="#828282"/>
<path d="M12.3698 39.5219C12.2385 39.6692 11.9588 39.6297 11.7541 39.4287C11.5446 39.2322 11.4863 38.9534 11.618 38.8062C11.7509 38.6585 12.0322 38.7001 12.2385 38.8994C12.4463 39.0955 12.5098 39.3763 12.3698 39.5219Z" fill="#828282"/>
<path d="M14.1549 40.309C14.097 40.4999 13.8276 40.5866 13.5563 40.5055C13.2853 40.422 13.108 40.1985 13.1628 40.0056C13.2191 39.8136 13.4896 39.7232 13.763 39.8099C14.0335 39.893 14.2112 40.1149 14.1549 40.309Z" fill="#828282"/>
<path d="M16.1154 40.4552C16.1221 40.6561 15.892 40.8228 15.6072 40.826C15.3208 40.8329 15.0891 40.6703 15.0859 40.4726C15.0859 40.2696 15.3109 40.1046 15.5973 40.0998C15.8821 40.0941 16.1154 40.2555 16.1154 40.4552Z" fill="#828282"/>
<path d="M17.9396 40.1392C17.9737 40.3353 17.7757 40.5366 17.4929 40.5899C17.2148 40.6419 16.9574 40.5209 16.9221 40.3264C16.8876 40.1255 17.0891 39.9241 17.3668 39.8721C17.65 39.8221 17.9035 39.9399 17.9396 40.1392Z" fill="#828282"/>
</svg>
