<svg width="147" height="146" viewBox="0 0 147 146" fill="none" xmlns="http://www.w3.org/2000/svg">
<path fill-rule="evenodd" clip-rule="evenodd" d="M73.5608 0.5C32.8836 0.5 0 33.729 0 74.8379C0 107.698 21.0696 135.514 50.2988 145.359C53.9532 146.099 55.2918 143.759 55.2918 141.791C55.2918 140.068 55.1714 134.161 55.1714 128.006C34.7085 132.437 30.4473 119.144 30.4473 119.144C27.1588 110.529 22.2863 108.315 22.2863 108.315C15.5888 103.761 22.7741 103.761 22.7741 103.761C30.2034 104.253 34.1017 111.391 34.1017 111.391C40.6772 122.713 51.273 119.514 55.5358 117.545C56.1441 112.745 58.094 109.422 60.1644 107.576C43.8438 105.853 26.6725 99.453 26.6725 70.8987C26.6725 62.7757 29.5936 56.1299 34.2222 50.9613C33.4919 49.1156 30.9337 41.4835 34.954 31.2686C34.954 31.2686 41.1651 29.299 55.1699 38.8992C61.1658 37.2719 67.3493 36.4442 73.5608 36.4372C79.7719 36.4372 86.1035 37.2996 91.9503 38.8992C105.957 29.299 112.168 31.2686 112.168 31.2686C116.188 41.4835 113.628 49.1156 112.898 50.9613C117.649 56.1299 120.449 62.7757 120.449 70.8987C120.449 99.453 103.278 105.729 86.8353 107.576C89.5155 109.914 91.8283 114.344 91.8283 121.36C91.8283 131.329 91.7078 139.329 91.7078 141.79C91.7078 143.759 93.0479 146.099 96.7008 145.36C125.93 135.513 147 107.698 147 74.8379C147.12 33.729 114.116 0.5 73.5608 0.5Z" fill="#24292F"/>
</svg>
