<svg width="48" height="49" viewBox="0 0 48 49" fill="none" xmlns="http://www.w3.org/2000/svg">
<path fill-rule="evenodd" clip-rule="evenodd" d="M0 24.5C0 37.7548 10.7452 48.5 24 48.5C37.2548 48.5 48 37.7548 48 24.5C48 11.2452 37.2548 0.5 24 0.5C10.7452 0.5 0 11.2452 0 24.5ZM19.6 35.5L20.0083 29.3823L20.008 29.382L31.1369 19.339C31.6253 18.9055 31.0303 18.6941 30.3819 19.0873L16.6473 27.7523L10.7147 25.9007C9.4335 25.5084 9.4243 24.628 11.0023 23.9951L34.1203 15.0809C35.1762 14.6015 36.1953 15.3345 35.7922 16.9505L31.8552 35.5031C31.5803 36.8215 30.7837 37.1368 29.68 36.5278L23.6827 32.0969L20.8 34.9C20.7909 34.9088 20.7819 34.9176 20.7729 34.9264C20.4505 35.2403 20.1837 35.5 19.6 35.5Z" fill="#828282"/>
</svg>
